<?xml version="1.0" encoding="iso-8859-1"?>
<!-- Generator: Adobe Illustrator 19.0.0, SVG Export Plug-In . SVG Version: 6.00 Build 0)  -->
<svg version="1.1" id="Capa_1" xmlns="http://www.w3.org/2000/svg" xmlns:xlink="http://www.w3.org/1999/xlink" x="0px" y="0px"
	 viewBox="0 0 512.015 512.015" style="enable-background:new 0 0 512.015 512.015;" xml:space="preserve">
<g>
	<g>
		<path d="M432.007,224.015h-22.08c-5.408-20.16-14.432-39.616-28-57.184c-41.824-53.92-98.304-38.464-132.032-29.248
			c-5.92,1.6-11.36,3.008-16.288,4.032c-8.416-21.76-19.328-73.792,46.4-111.744c7.648-4.416,10.272-14.208,5.856-21.856
			c-4.448-7.648-14.24-10.304-21.856-5.856c-26.272,15.168-43.264,32.928-53.856,51.296c-3.072-5.216-6.464-10.304-10.56-15.04
			c-21.408-24.736-52.512-38.4-87.584-38.4c-8.832,0-16,7.168-16,16c0,35.104,13.632,66.176,38.4,87.584
			c18.24,15.776,40.48,24.288,62.592,24.384c0.544,3.36,1.184,6.624,1.952,9.824c-0.288-0.096-0.512-0.16-0.832-0.224
			c-33.76-9.216-90.208-24.704-132.064,29.28c-41.888,54.208-44.544,125.376-9.408,185.152h-40.64c-8.832,0-16,7.168-16,16v128
			c0,8.832,7.168,16,16,16h416c44.096,0,80-35.872,80-80v-128C512.007,259.887,476.103,224.015,432.007,224.015z M155.335,79.375
			c-13.44-11.616-22.304-27.488-25.728-45.76c18.272,3.424,34.144,12.288,45.76,25.76c9.28,10.656,14.944,23.584,16.32,36.288
			C178.951,94.319,166.023,88.655,155.335,79.375z M91.367,186.447c28.704-37.12,65.664-26.976,98.304-18.016
			c10.336,2.848,19.136,4.224,27.744,4.768c2.08,0.96,4.256,1.728,6.56,1.728c2.272,0,4.544-0.736,6.72-1.76
			c8.576-0.576,17.344-1.952,27.648-4.768c32.672-8.928,69.632-19.072,98.304,17.984c45.696,59.136,27.392,124.672-3.68,165.6
			H95.079C63.975,311.119,45.671,245.551,91.367,186.447z M480.007,432.015c0,26.464-21.536,48-48,48h-16v-16
			c0-8.832-7.168-16-16-16c-8.832,0-16,7.168-16,16v16h-32v-48c0-8.832-7.168-16-16-16c-8.832,0-16,7.168-16,16v48h-32v-16
			c0-8.832-7.168-16-16-16c-8.832,0-16,7.168-16,16v16h-32v-16c0-8.832-7.168-16-16-16c-8.832,0-16,7.168-16,16v16h-32v-48
			c0-8.832-7.168-16-16-16c-8.832,0-16,7.168-16,16v48h-32v-16c0-8.832-7.168-16-16-16c-8.832,0-16,7.168-16,16v16h-32v-96h47.904
			h288.224h63.872c18.08,0,34.592-6.24,48-16.416V432.015z M432.007,352.015h-40.64c17.824-30.304,25.408-63.488,23.584-96h17.056
			c26.464,0,48,21.536,48,48S458.471,352.015,432.007,352.015z"/>
	</g>
</g>
<g>
</g>
<g>
</g>
<g>
</g>
<g>
</g>
<g>
</g>
<g>
</g>
<g>
</g>
<g>
</g>
<g>
</g>
<g>
</g>
<g>
</g>
<g>
</g>
<g>
</g>
<g>
</g>
<g>
</g>
</svg>
