<?xml version="1.0" encoding="iso-8859-1"?>
<!-- Generator: Adobe Illustrator 19.0.0, SVG Export Plug-In . SVG Version: 6.00 Build 0)  -->
<svg version="1.1" id="Capa_1" xmlns="http://www.w3.org/2000/svg" xmlns:xlink="http://www.w3.org/1999/xlink" x="0px" y="0px"
	 viewBox="0 0 512 512" style="enable-background:new 0 0 512 512;" xml:space="preserve">
<g>
	<g>
		<path d="M392.026,0.056c-66.154,0-119.974,53.82-119.974,119.974c0,32.909,13.322,62.762,34.851,84.46
			c-25.584,16.728-59.451,36.379-87.16,77.943l-13.17,19.756c-4.026-12.126-10.684-23.387-19.67-33.018
			c-11.2-12.002-25.248-20.688-40.659-25.321c2.548-11.041,3.834-22.366,3.834-33.839c0-75.274-55.535-137.876-128.326-148.416
			c-8.553-4.226-20.269,0.26-21.639,12.601c-0.004,0.036-0.002,268.272-0.002,268.308c-0.784,7.076,2.768,11.171,5.068,14.619
			c39.43,59.146,95.125,108.709,156.825,139.559l27.358,13.679c2.116,1.058,4.413,1.584,6.707,1.584c2.645,0,5.287-0.7,7.635-2.089
			l70.259-41.556c54.368-32.62,97.055-84.572,120.197-146.283l32.69-87.173C476.074,219.884,512,174.076,512,120.029
			C512,53.876,458.179,0.056,392.026,0.056z M366.074,311.486c-20.772,55.391-58.965,101.948-107.463,131.048l-63.145,37.348
			l-20.05-10.025c-57.106-28.552-108.7-74.497-145.283-129.37l-0.03-0.046V93.797c52.324,13.368,89.98,60.673,89.98,116.214
			c0,13.838-2.331,27.395-6.93,40.295c-1.553,4.356-1.009,9.185,1.474,13.087c2.482,3.902,6.627,6.44,11.231,6.878
			c33.529,3.192,61.073,34.263,54.03,71.645c-3.063,16.242,19.634,24.918,28.658,11.385l36.153-54.23
			c24.6-36.9,54.249-53.543,87.333-75.175c17.659,10.24,38.153,16.109,59.993,16.109c0.287,0,0.573-0.009,0.859-0.011
			L366.074,311.486z M392.026,210.01c-49.615,0-89.981-40.365-89.981-89.98c0-49.615,40.365-89.981,89.981-89.981
			s89.98,40.365,89.98,89.981C482.006,169.645,441.641,210.01,392.026,210.01z"/>
	</g>
</g>
<g>
	<g>
		<path d="M392.026,60.043c-33.077,0-59.987,26.91-59.987,59.987s26.91,59.987,59.987,59.987s59.987-26.91,59.987-59.987
			C452.013,86.953,425.103,60.043,392.026,60.043z M392.026,150.023c-16.538,0-29.994-13.455-29.994-29.993
			c0-16.538,13.455-29.994,29.994-29.994s29.993,13.455,29.993,29.994C422.019,136.568,408.564,150.023,392.026,150.023z"/>
	</g>
</g>
<g>
</g>
<g>
</g>
<g>
</g>
<g>
</g>
<g>
</g>
<g>
</g>
<g>
</g>
<g>
</g>
<g>
</g>
<g>
</g>
<g>
</g>
<g>
</g>
<g>
</g>
<g>
</g>
<g>
</g>
</svg>
