<?xml version="1.0" encoding="iso-8859-1"?>
<!-- Generator: Adobe Illustrator 16.0.0, SVG Export Plug-In . SVG Version: 6.00 Build 0)  -->
<!DOCTYPE svg PUBLIC "-//W3C//DTD SVG 1.1//EN" "http://www.w3.org/Graphics/SVG/1.1/DTD/svg11.dtd">
<svg version="1.1" id="Capa_1" xmlns="http://www.w3.org/2000/svg" xmlns:xlink="http://www.w3.org/1999/xlink" x="0px" y="0px"
	 width="374.735px" height="374.735px" viewBox="0 0 374.735 374.735" style="enable-background:new 0 0 374.735 374.735;"
	 xml:space="preserve">
<g>
	<g>
		<path style="fill:#030303;" d="M374.735,40.563h-35.863H35.863H0v11.711h35.863v212.253h137.369l-61.362,61.365l8.279,8.279
			l61.363-61.365v60.52h11.71v-60.52l59.719,59.719l8.28-8.279l-59.719-59.719h137.369V52.274h35.863V40.563z M327.162,252.816
			H47.574V52.274h279.588V252.816z"/>
		<polygon style="fill:#030303;" points="105.926,160.613 168.009,193.452 202.28,143.674 259.906,159.384 305.891,79.349 
			295.735,73.517 254.257,145.707 197.34,130.191 164.275,178.239 100.471,144.483 67.141,216.695 77.776,221.602 		"/>
	</g>
</g>
<g>
</g>
<g>
</g>
<g>
</g>
<g>
</g>
<g>
</g>
<g>
</g>
<g>
</g>
<g>
</g>
<g>
</g>
<g>
</g>
<g>
</g>
<g>
</g>
<g>
</g>
<g>
</g>
<g>
</g>
</svg>
